# xmcd
# Track frame offsets:
# 150
# 21649
# 36762
# 56935
# 80763
# 101693
# 119296
# 141451
# 158252
#
# Disc length: 2435 seconds
# Revision: 0
# Processed by: cddbd v1.5.2PL0 Copyright (c) Steve Scherf et al.
# Submitted via: VisiTrax 2.11.3.279 - For more info visit www.synapsa.com
#
DISCID=7c098109
DTITLE=Billy Watson - Nine Lives
DYEAR=2013
DGENRE=Blues
TTITLE0=Bad Love
TTITLE1=1960's Soundtrack Rhumba
TTITLE2=Cheap Wine
TTITLE3=Big Black Train
TTITLE4=Don't You Laugh at Me
TTITLE5=Spooky Boogie
TTITLE6=Neon Noodle
TTITLE7=Pumpkinhead is Coming
TTITLE8=Shave and a Haircut
EXTD=
EXTT0=
EXTT1=
EXTT2=
EXTT3=
EXTT4=
EXTT5=
EXTT6=
EXTT7=
EXTT8=
PLAYORDER=
